<svg xmlns="http://www.w3.org/2000/svg" xmlns:xlink="http://www.w3.org/1999/xlink" width="136" height="25" viewBox="0 0 136 25">
    <defs>
        <path id="a" d="M.014.352h2.49v3.542H.015z"/>
        <path id="c" d="M.09.032h2.687v3.413H.09z"/>
    </defs>
    <g fill="none" fill-rule="evenodd">
        <path fill="#2FAAE1" d="M93.943 7.126h1.711c.196 0 .356.16.356.36v.274c0 .312.368.48.591.267.769-.737 1.838-1.24 3.227-1.24 3.78 0 5.373 3.245 5.373 5.893 0 3.107-2.184 5.714-5.354 5.714-1.467 0-2.467-.532-3.085-1.09a.354.354 0 0 0-.595.263v3.952a.357.357 0 0 1-.355.36h-1.869a.357.357 0 0 1-.355-.36V7.485c0-.198.159-.36.355-.36zm8.68 5.455c0-1.573-1.122-3.364-3.307-3.364-.944 0-1.752.378-2.342.995-.571.597-.926 1.453-.926 2.409 0 .936.355 1.772.945 2.369.591.597 1.418.975 2.343.975 1.968 0 3.287-1.572 3.287-3.364v-.02zM107.564 3.323h1.869c.196 0 .355.161.355.36v14.014c0 .198-.16.359-.355.359h-1.869a.357.357 0 0 1-.355-.36V3.684c0-.199.159-.36.355-.36M128.553 17.501l-3.832-9.885a.359.359 0 0 1 .33-.49h1.988c.149 0 .282.094.334.235l2.216 6.107a.354.354 0 0 0 .667-.002l2.182-6.103a.356.356 0 0 1 .334-.237h1.987c.25 0 .422.254.33.49l-5.41 14.034a.355.355 0 0 1-.332.228h-1.977a.36.36 0 0 1-.328-.498l1.507-3.608a.36.36 0 0 0 .004-.27M123.105 7.125h-1.86a.352.352 0 0 0-.35.354v.205c0 .316-.386.465-.607.26-.645-.633-1.639-1.154-3.038-1.154-3.038 0-5.487 2.346-5.487 5.791 0 3.091 2.026 5.81 5.487 5.81 1.16 0 2.265-.373 3.038-1.117.22-.224.607-.056.607.26v.168c0 .186.148.354.35.354h1.86a.368.368 0 0 0 .368-.354V7.479a.368.368 0 0 0-.368-.354m-5.92 8.537c-1.608 0-2.914-1.283-2.914-3.018v-.018c0-1.754 1.306-3.037 2.914-3.037s2.896 1.283 2.896 3.037c0 1.753-1.288 3.036-2.896 3.036"/>
        <path fill="#EE4758" d="M48.048 17.5l-3.832-9.886a.359.359 0 0 1 .33-.49h1.988c.149 0 .282.094.333.235l2.216 6.106a.354.354 0 0 0 .668-.002l2.182-6.102a.356.356 0 0 1 .334-.238h1.987c.25 0 .422.255.33.49l-5.411 14.034a.355.355 0 0 1-.331.23h-1.978a.359.359 0 0 1-.327-.5l1.507-3.607a.362.362 0 0 0 .004-.27M54.97 12.559c0-2.787 2.028-5.754 5.788-5.754 3.76 0 5.787 2.967 5.787 5.774 0 2.826-2.028 5.793-5.787 5.793-3.76 0-5.788-2.967-5.788-5.793v-.02zm2.58.04c0 1.911 1.436 3.325 3.208 3.325 1.77 0 3.188-1.414 3.188-3.345 0-1.932-1.417-3.345-3.188-3.345-1.772 0-3.209 1.413-3.209 3.345v.02zM68.888 7.124h1.71c.198 0 .356.162.355.36V7.5c0 .313.37.485.594.268.568-.554 1.436-.995 2.753-.982 3.524.02 4.193 2.748 4.193 4.679v6.23c0 .199-.16.36-.355.36h-1.869a.357.357 0 0 1-.355-.36v-5.573c0-1.633-.531-2.887-2.342-2.887-1.831.02-2.46 1.254-2.46 2.787v5.673c0 .199-.16.36-.356.36h-1.868a.357.357 0 0 1-.356-.36V7.484c0-.2.16-.36.356-.36"/>
        <path fill="#EE4757" d="M83.33 13.455a.361.361 0 0 0-.344.447c.326 1.47 1.72 2.278 3.066 2.26 1.175 0 1.991-.503 2.495-1.298a.363.363 0 0 1 .304-.175h1.892c.267 0 .44.29.316.529-.498.955-1.168 1.694-1.937 2.219-.905.637-1.968.955-3.09.955-3.327 0-5.708-2.727-5.708-5.773 0-3.106 2.4-5.834 5.669-5.834 1.614 0 3.03.617 4.035 1.673 1.243 1.294 1.752 2.89 1.625 4.67a.355.355 0 0 1-.355.327h-7.967zm5.31-1.991a.359.359 0 0 0 .338-.473c-.326-.954-1.351-2.013-2.966-1.996-1.64 0-2.641 1.028-2.953 2a.36.36 0 0 0 .34.469h5.24z"/>
        <path fill="#EE4758" d="M38.358 6.783c-1.389 0-2.46.505-3.227 1.241-.223.215-.591.046-.591-.266v-.275c0-.2-.162-.358-.359-.358h-1.707a.357.357 0 0 0-.359.358v14.033c0 .199.162.362.359.362h1.863a.362.362 0 0 0 .36-.362v-3.95c0-.316.363-.474.595-.265.617.557 1.617 1.093 3.086 1.093 3.167 0 5.354-2.61 5.354-5.716 0-2.646-1.596-5.895-5.374-5.895m2.706 5.565l-2.38 2.807a1.1 1.1 0 0 1-1.858-.297l-1.268-3.07c-.317-.767.278-1.604 1.098-1.545l3.647.262c.906.065 1.352 1.145.76 1.843"/>
        <path fill="#2FAAE1" d="M24.878 13.455L12.146 23.3c-2.867 2.217-7.038.6-7.706-2.986L1.772 5.982C1.104 2.395 4.408-.645 7.875.365l15.402 4.487c3.824 1.114 4.763 6.159 1.601 8.603"/>
        <path fill="#8E7090" d="M24.815 12.634L12.792 23.352c-2.707 2.414-6.98 1.096-7.893-2.435L1.249 6.808C.335 3.278 3.422.012 6.951.775l15.672 3.389c3.893.842 5.178 5.807 2.192 8.47"/>
        <path fill="#DDE350" d="M24.694 11.818L13.44 23.36c-2.533 2.6-6.887 1.585-8.041-1.873L.784 7.67C-.37 4.212 2.483.736 6.056 1.25l15.868 2.275c3.941.565 5.565 5.428 2.77 8.294"/>
        <path fill="#EE4758" d="M24.518 11.013L14.088 23.32c-2.349 2.771-6.761 2.067-8.152-1.301L.38 8.562c-1.39-3.368 1.217-7.037 4.816-6.778l15.987 1.15c3.97.286 5.926 5.023 3.335 8.08"/>
        <path fill="#FEFEFE" d="M12.305 9.202l-.251-.254a.579.579 0 0 1 0-.812l.336-.34a.563.563 0 0 1 .803 0l.25.254a.579.579 0 0 1 0 .812l-.335.34a.564.564 0 0 1-.803 0m-3.085 3.12l-.251-.254a.58.58 0 0 1 0-.812l.335-.34a.564.564 0 0 1 .803 0l.251.255a.579.579 0 0 1 0 .812l-.335.34a.563.563 0 0 1-.803 0M9.412 14.868a.565.565 0 0 1 .528-.152c1.132.251 2.785-.022 4.082-1.334 1.247-1.262 1.568-2.918 1.304-4.114a.579.579 0 0 1 .15-.533l.264-.267a.566.566 0 0 1 .95.253c.606 2.28-.263 4.439-1.59 5.781-1.308 1.322-3.48 2.217-5.707 1.593-.417-.116-.551-.65-.245-.96l.264-.267z"/>
        <g transform="translate(129.676 -.352)">
            <mask id="b" fill="#fff">
                <use xlink:href="#a"/>
            </mask>
            <path fill="#2FAAE1" d="M1.255 3.894c-.379 0-.835-.147-1.054-.48-.123-.188-.164-.382-.187-.603h.871c.046.207.178.318.393.318.233 0 .365-.153.365-.383 0-.406-.488-.346-.758-.346v-.641c.247 0 .57.01.57-.341 0-.148-.068-.3-.236-.3-.192 0-.26.12-.265.295H.106C.115.735.626.352 1.26.352c.533 0 1.058.346 1.058.932 0 .341-.16.558-.447.715.388.134.634.405.634.825 0 .66-.652 1.07-1.25 1.07" mask="url(#b)"/>
        </g>
        <g transform="translate(132.338 .033)">
            <mask id="d" fill="#fff">
                <use xlink:href="#c"/>
            </mask>
            <path fill="#2FAAE1" d="M1.632 1.093h-.009l-.666 1.07h.675v-1.07zm.77 1.753v.6h-.825v-.6H.09v-.637L1.6.032h.803v2.13h.374v.684h-.374z" mask="url(#d)"/>
        </g>
    </g>
</svg>
